# xmcd
#
# Track frame offsets:
#	192
#	13155
#	28565
#	41845
#	53497
#	64455
#	77677
#	91942
#	108635
#	123027
#	138567
#	172705
#	188327
#	204137
#	215325
#	230135
#
# Disc length: 3229 seconds
# Revision: 3
# Processed by: cddbd v1.5.2PL0 Copyright (c) Steve Scherf et al.
# Submitted via: dBpowerAMP V12.0
#
DISCID=ce0c9b10
DTITLE=Various Artist - Super Soul Blues, Vol. 2
DYEAR=1991
DGENRE=Blues
TTITLE0=Aaron Neville - Tell It Like It Is
TTITLE1=Cookie and His Cupcakes - Mathilda
TTITLE2=Little Johnny Taylor - Everybody Knows About My Good Thing
TTITLE3=B. B. King - Recession Blues
TTITLE4=Peppermint Harris - Bad Bad Whiskey
TTITLE5=Jimmy Reed - Bright Lights, Big City
TTITLE6=Fred, John and His Playboy Band - Boogie Children
TTITLE7=Toussaint McCall - Nothing Takes The Place Of You
TTITLE8=Clarence Carter - Can We Slip Away Again
TTITLE9=The Montclairs - Dreaming Out of Season
TTITLE10=Ernie Johnson - Party All Night
TTITLE11=Napoleon "snags" Allen - Bring It On Home
TTITLE12=Tommy Young - That's How Strong My Love Is
TTITLE13=Bobby Patterson - How Do You Spell Love?
TTITLE14=Louis Villery - Making Nassau Fruit Drink
TTITLE15=Little Johnny Taylor - Open Houe At My House (Pt. 1)
EXTD=
EXTT0=
EXTT1=
EXTT2=
EXTT3=
EXTT4=
EXTT5=
EXTT6=
EXTT7=
EXTT8=
EXTT9=
EXTT10=
EXTT11=
EXTT12=
EXTT13=
EXTT14=
EXTT15=
PLAYORDER=
